<svg xmlns="http://www.w3.org/2000/svg" viewBox="0.434 -6.000 814.613 150.000" width="815" height="150">
  
  <g transform="translate(0.000,123.000) rotate(-4 39.300 -43.200) scale(0.12000,-0.12000)"><path d="M119 -8Q76 -8 57.0 5.0Q38 18 33.0 39.0Q28 60 28 84V601Q28 623 32.0 644.0Q36 665 55.0 678.5Q74 692 120 691H292Q363 691 426.0 664.0Q489 637 537.5 589.5Q586 542 613.5 479.0Q641 416 641 345Q641 272 613.5 208.0Q586 144 537.5 95.5Q489 47 425.5 19.5Q362 -8 289 -8ZM211 175H292Q337 175 375.0 197.5Q413 220 435.5 257.5Q458 295 458 341Q458 387 435.5 425.0Q413 463 375.0 485.5Q337 508 291 508H211Z" fill="#5A6CC9"/></g>
  <g transform="translate(77.421,116.000) rotate(3 32.100 -43.200) scale(0.12000,-0.12000)"><path d="M288 -20Q213 -20 161.0 4.5Q109 29 77.0 68.5Q45 108 30.0 154.0Q15 200 15 243Q15 322 50.0 382.0Q85 442 147.0 476.0Q209 510 289 510Q351 510 395.0 490.0Q439 470 466.5 439.0Q494 408 507.0 373.0Q520 338 520 308Q520 251 492.0 221.0Q464 191 420 191H207Q211 175 223.5 163.5Q236 152 255.0 145.5Q274 139 296 139Q318 139 335.0 141.5Q352 144 364.5 148.0Q377 152 387.5 156.0Q398 160 406.5 162.5Q415 165 423 165Q441 165 456.0 153.0Q471 141 483 117Q490 104 493.0 92.5Q496 81 496 71Q496 41 471.5 21.0Q447 1 401.0 -9.5Q355 -20 288 -20ZM207 285H319Q333 285 339.5 291.0Q346 297 346 309Q346 322 338.5 331.0Q331 340 318.0 344.5Q305 349 287 349Q263 349 245.0 339.5Q227 330 217.5 315.5Q208 301 207 285Z" fill="#F2A8B8"/></g>
  <g transform="translate(140.658,122.000) rotate(-2 18.660 -43.200) scale(0.12000,-0.12000)"><path d="M242 -9Q196 -9 161.5 -5.0Q127 -1 103.0 11.0Q79 23 64.0 45.5Q49 68 42.0 104.5Q35 141 35 196V639Q35 662 39.0 682.5Q43 703 62.0 716.5Q81 730 126 730Q171 730 189.5 716.5Q208 703 212.0 682.0Q216 661 216 638V207Q216 192 216.5 183.5Q217 175 219.5 171.0Q222 167 227.5 166.5Q233 166 243 166Q256 166 270.5 162.5Q285 159 295.5 141.5Q306 124 306 81Q306 36 295.5 17.0Q285 -2 270.0 -5.5Q255 -9 242 -9Z" fill="#FFB293"/></g>
  <g transform="translate(177.418,119.000) rotate(1 15.060 -43.200) scale(0.12000,-0.12000)"><path d="M125 -9Q80 -9 61.0 4.5Q42 18 38.5 39.0Q35 60 35 82V408Q35 430 39.0 450.5Q43 471 62.0 484.5Q81 498 126 498Q171 498 189.5 484.5Q208 471 212.0 450.0Q216 429 216 406V81Q216 59 212.0 38.0Q208 17 189.5 4.0Q171 -9 125 -9ZM125 547Q80 547 61.0 560.5Q42 574 38.5 595.0Q35 616 35 638Q35 661 39.0 681.5Q43 702 62.0 715.0Q81 728 126 728Q171 728 189.5 714.5Q208 701 212.0 680.0Q216 659 216 637Q216 615 212.0 594.0Q208 573 189.5 560.0Q171 547 125 547Z" fill="#7B8AE0"/></g>
  <g transform="translate(243.086,117.000) rotate(4 56.820 -43.200) scale(0.12000,-0.12000)"><path d="M290 -8Q258 -8 240.0 5.0Q222 18 214.0 33.5Q206 49 204 54L24 570Q9 620 19.5 644.5Q30 669 82 686Q116 697 137.0 696.0Q158 695 172.0 679.0Q186 663 197 629L301 325L383 624Q386 634 393.5 650.0Q401 666 419.0 678.5Q437 691 471 691Q509 691 527.5 677.0Q546 663 553.0 647.0Q560 631 563 623L645 323L749 629Q760 662 773.5 678.5Q787 695 809.0 697.0Q831 699 865 687Q901 674 916.0 659.5Q931 645 931.5 624.0Q932 603 922 570L743 54Q741 48 733.5 33.0Q726 18 708.0 5.0Q690 -8 656 -8Q622 -8 603.0 7.5Q584 23 576.0 39.5Q568 56 567 59L473 367L379 60Q378 55 370.0 38.5Q362 22 343.5 7.0Q325 -8 290 -8Z" fill="#B7A5DB"/></g>
  <g transform="translate(355.022,123.000) rotate(-3 15.060 -43.200) scale(0.12000,-0.12000)"><path d="M125 -9Q80 -9 61.0 4.5Q42 18 38.5 39.0Q35 60 35 82V408Q35 430 39.0 450.5Q43 471 62.0 484.5Q81 498 126 498Q171 498 189.5 484.5Q208 471 212.0 450.0Q216 429 216 406V81Q216 59 212.0 38.0Q208 17 189.5 4.0Q171 -9 125 -9ZM125 547Q80 547 61.0 560.5Q42 574 38.5 595.0Q35 616 35 638Q35 661 39.0 681.5Q43 702 62.0 715.0Q81 728 126 728Q171 728 189.5 714.5Q208 701 212.0 680.0Q216 659 216 637Q216 615 212.0 594.0Q208 573 189.5 560.0Q171 547 125 547Z" fill="#F2A8B8"/></g>
  <g transform="translate(384.690,118.000) rotate(2 33.960 -43.200) scale(0.12000,-0.12000)"><path d="M120 -8Q75 -8 56.0 5.5Q37 19 33.5 40.0Q30 61 30 83V412Q30 434 34.0 454.0Q38 474 57.0 486.5Q76 499 121 499Q162 499 180.5 488.5Q199 478 204.0 463.0Q209 448 208.5 435.5Q208 423 210 420L202 414Q201 429 213.5 444.0Q226 459 246.5 471.5Q267 484 290.5 491.5Q314 499 335 499Q385 499 423.0 480.0Q461 461 486.5 426.5Q512 392 525.0 346.0Q538 300 538 246V82Q538 60 534.0 39.0Q530 18 511.5 5.0Q493 -8 447 -8Q401 -8 382.0 5.5Q363 19 359.0 40.0Q355 61 355 83V246Q355 269 346.5 285.0Q338 301 322.5 309.5Q307 318 284 318Q262 318 245.5 309.0Q229 300 220.0 284.0Q211 268 211 246V82Q211 60 207.0 39.0Q203 18 184.5 5.0Q166 -8 120 -8Z" fill="#5A6CC9"/></g>
  <g transform="translate(451.591,124.000) rotate(-4 25.740 -43.200) scale(0.12000,-0.12000)"><path d="M302 -9Q249 -9 210.0 3.0Q171 15 145.5 40.0Q120 65 107.5 103.0Q95 141 95 192V580Q95 603 99.0 622.5Q103 642 122.0 654.5Q141 667 186 667Q230 667 249.0 653.5Q268 640 272.0 619.0Q276 598 276 576V201Q276 190 277.5 182.5Q279 175 282.0 171.0Q285 167 290.0 165.0Q295 163 303 163Q329 163 349.5 159.0Q370 155 381.5 138.0Q393 121 393 81Q393 36 379.0 17.0Q365 -2 344.0 -5.5Q323 -9 302 -9ZM74 493H191L329 498Q351 498 371.5 494.0Q392 490 405.5 471.0Q419 452 419 406Q419 364 405.5 345.0Q392 326 371.5 321.0Q351 316 328 316L201 319H70Q36 321 23.0 341.0Q10 361 10 407Q10 450 26.0 471.5Q42 493 74 493Z" fill="#FFB293"/></g>
  <g transform="translate(502.299,117.000) rotate(3 33.780 -43.200) scale(0.12000,-0.12000)"><path d="M118 -9Q73 -9 54.0 4.5Q35 18 31.5 39.0Q28 60 28 82V638Q28 661 32.0 681.5Q36 702 55.0 715.0Q74 728 119 728Q164 728 182.5 714.5Q201 701 205.0 680.5Q209 660 209 637V455Q224 469 249.5 483.5Q275 498 309 498Q373 498 424.0 464.5Q475 431 505.0 374.0Q535 317 535 245V81Q535 59 531.0 38.5Q527 18 508.5 4.5Q490 -9 444 -9Q400 -9 380.5 4.0Q361 17 357.0 38.0Q353 59 353 83V246Q353 268 345.0 283.5Q337 299 322.0 308.0Q307 317 286 317Q259 317 236.0 300.0Q213 283 209 261V81Q209 59 205.0 38.0Q201 17 182.5 4.0Q164 -9 118 -9Z" fill="#7B8AE0"/></g>
  <g transform="translate(568.846,122.000) rotate(-2 25.920 -43.200) scale(0.12000,-0.12000)"><path d="M120 -9Q75 -9 56.0 4.5Q37 18 33.5 39.5Q30 61 30 83V409Q30 432 34.0 452.5Q38 473 57.0 486.0Q76 499 121 499Q165 499 183.5 487.0Q202 475 206.0 460.5Q210 446 210 438L194 444Q194 444 202.0 453.0Q210 462 225.5 474.0Q241 486 262.5 495.0Q284 504 311 504Q320 504 333.5 502.5Q347 501 362.5 497.0Q378 493 391.5 485.0Q405 477 413.5 464.0Q422 451 422 432Q422 382 400.5 347.0Q379 312 344 312Q325 312 317.0 314.5Q309 317 305.5 319.5Q302 322 297.5 324.5Q293 327 281 327Q266 327 253.5 323.5Q241 320 231.5 313.0Q222 306 217.0 296.5Q212 287 212 276V81Q212 59 208.0 38.0Q204 17 185.0 4.0Q166 -9 120 -9Z" fill="#B7A5DB"/></g>
  <g transform="translate(619.908,118.000) rotate(3 33.480 -43.200) scale(0.12000,-0.12000)"><path d="M280 -18Q234 -18 187.0 0.5Q140 19 100.5 53.5Q61 88 37.5 136.5Q14 185 14 245Q14 300 35.0 348.0Q56 396 92.5 432.5Q129 469 176.5 490.0Q224 511 278 511Q352 511 412.0 475.5Q472 440 508.0 380.0Q544 320 544 246Q544 183 520.0 134.0Q496 85 457.0 51.0Q418 17 371.5 -0.5Q325 -18 280 -18ZM278 165Q293 165 312.5 172.5Q332 180 346.5 198.0Q361 216 361 247Q361 272 350.5 290.0Q340 308 321.0 318.0Q302 328 277 328Q255 328 237.0 317.5Q219 307 208.0 288.5Q197 270 197 246Q197 216 211.0 198.0Q225 180 244.0 172.5Q263 165 278 165Z" fill="#F2A8B8"/></g>
  <g transform="translate(685.864,123.000) rotate(-3 32.460 -43.200) scale(0.12000,-0.12000)"><path d="M300 3Q251 3 215.0 23.0Q179 43 156.0 77.5Q133 112 122.0 156.0Q111 200 112 249Q113 297 124.5 342.0Q136 387 159.0 422.0Q182 457 217.0 477.5Q252 498 300 498Q344 498 385.5 477.0Q427 456 460.0 420.5Q493 385 512.0 340.0Q531 295 531 247Q531 197 512.0 152.5Q493 108 460.5 74.5Q428 41 386.5 22.0Q345 3 300 3ZM115 -221Q71 -221 52.0 -208.0Q33 -195 29.5 -175.0Q26 -155 26 -133V410Q26 432 29.5 452.0Q33 472 51.5 485.5Q70 499 114 499Q149 499 172.0 489.5Q195 480 205 460V-132Q207 -154 202.5 -174.5Q198 -195 179.0 -208.0Q160 -221 115 -221ZM276 173Q296 173 312.5 183.0Q329 193 339.0 209.5Q349 226 349 245Q349 265 339.5 281.5Q330 298 313.5 307.5Q297 317 277 317Q257 317 240.5 307.0Q224 297 214.5 281.0Q205 265 205 245Q205 226 215.0 209.5Q225 193 241.0 183.0Q257 173 276 173Z" fill="#5A6CC9"/></g>
  <g transform="translate(749.810,116.000) rotate(4 32.100 -43.200) scale(0.12000,-0.12000)"><path d="M288 -20Q213 -20 161.0 4.5Q109 29 77.0 68.5Q45 108 30.0 154.0Q15 200 15 243Q15 322 50.0 382.0Q85 442 147.0 476.0Q209 510 289 510Q351 510 395.0 490.0Q439 470 466.5 439.0Q494 408 507.0 373.0Q520 338 520 308Q520 251 492.0 221.0Q464 191 420 191H207Q211 175 223.5 163.5Q236 152 255.0 145.5Q274 139 296 139Q318 139 335.0 141.5Q352 144 364.5 148.0Q377 152 387.5 156.0Q398 160 406.5 162.5Q415 165 423 165Q441 165 456.0 153.0Q471 141 483 117Q490 104 493.0 92.5Q496 81 496 71Q496 41 471.5 21.0Q447 1 401.0 -9.5Q355 -20 288 -20ZM207 285H319Q333 285 339.5 291.0Q346 297 346 309Q346 322 338.5 331.0Q331 340 318.0 344.5Q305 349 287 349Q263 349 245.0 339.5Q227 330 217.5 315.5Q208 301 207 285Z" fill="#FFB293"/></g>
</svg>
